<svg aria-hidden="true"
    style="position: absolute; width: 0; height: 0; overflow: hidden;"
    version="1.1"
    xmlns="http://www.w3.org/2000/svg"
    xmlns:xlink="http://www.w3.org/1999/xlink">
    <defs>
        <symbol id="icon-chocolate"
            viewBox="0 0 31 32">
            <path d="M13.021 0.441l8.276 8.386h0.11c0.175-0.157 0.407-0.253 0.662-0.253s0.487 0.096 0.663 0.254l-0.001-0.001 0.993 0.883c0.331 0.331 0.331 0.883 0 1.214v0.221l6.621 6.841c0.662 0.552 0.662 1.545 0 2.207l-10.262 10.372c-0.662 0.552-1.655 0.552-2.207 0l-4.966-5.186c-0.163 0.219-0.42 0.359-0.71 0.359-0.239 0-0.455-0.095-0.614-0.249l0 0-2.869-2.869c-0.157-0.175-0.253-0.407-0.253-0.662s0.096-0.487 0.254-0.663l-0.001 0.001-8.276-8.386c-0.552-0.552-0.552-1.545 0-2.207l10.372-10.262c0.662-0.552 1.655-0.552 2.207 0zM20.303 9.931l-1.986-2.207c-0.117-0.105-0.271-0.169-0.441-0.169s-0.325 0.064-0.442 0.169l0.001-0.001-3.972 3.972c-0.138 0.122-0.224 0.299-0.224 0.497s0.086 0.375 0.223 0.496l0.001 0.001 1.986 1.876 0.662-0.662-1.766-1.655 3.531-3.641 1.766 1.766 0.662-0.662zM14.786 15.448l-1.986-1.876c-0.122-0.138-0.299-0.224-0.497-0.224s-0.375 0.086-0.496 0.223l-0.001 0.001-3.972 3.972c-0.221 0.221-0.221 0.662 0 0.993l2.097 1.766 0.662-0.662-1.766-1.766 3.641-3.531 1.655 1.766 0.662-0.662zM7.393 6.952l3.972 3.972c0.221 0.221 0.662 0.221 0.993 0l3.862-3.972c0.124-0.11 0.206-0.265 0.221-0.439l0-0.002c0-0.221 0-0.331-0.221-0.552l-3.862-3.862c-0.122-0.138-0.299-0.224-0.497-0.224s-0.375 0.086-0.496 0.223l-0.001 0.001-3.862 3.752c-0.221 0.331-0.221 0.772 0 0.993zM1.876 12.469l3.862 3.972c0.331 0.331 0.772 0.331 0.993 0l3.972-3.862c0.081-0.109 0.13-0.245 0.13-0.393 0-0.056-0.007-0.111-0.020-0.163l0.001 0.005-0.11-0.441-3.972-3.972c-0.122-0.138-0.299-0.224-0.497-0.224s-0.375 0.086-0.496 0.223l-0.001 0.001-3.862 3.972c-0.331 0.221-0.331 0.662 0 0.993zM9.6 22.069l2.538 2.648 10.703-14.345-0.772-0.772-12.469 12.469z"></path>
            <path d="M13.021 0.441l8.276 8.386h0.11c0.175-0.157 0.407-0.253 0.662-0.253s0.487 0.096 0.663 0.254l-0.001-0.001 0.993 0.883c0.331 0.331 0.331 0.883 0 1.214v0.221l6.621 6.841c0.662 0.552 0.662 1.545 0 2.207l-10.262 10.372c-0.662 0.552-1.655 0.552-2.207 0l-4.966-5.186c-0.163 0.219-0.42 0.359-0.71 0.359-0.239 0-0.455-0.095-0.614-0.249l0 0-2.869-2.869c-0.157-0.175-0.253-0.407-0.253-0.662s0.096-0.487 0.254-0.663l-0.001 0.001-8.276-8.386c-0.552-0.552-0.552-1.545 0-2.207l10.372-10.262c0.662-0.552 1.655-0.552 2.207 0zM20.303 9.931l-1.986-2.207c-0.117-0.105-0.271-0.169-0.441-0.169s-0.325 0.064-0.442 0.169l0.001-0.001-3.972 3.972c-0.138 0.122-0.224 0.299-0.224 0.497s0.086 0.375 0.223 0.496l0.001 0.001 1.986 1.876 0.662-0.662-1.766-1.655 3.531-3.641 1.766 1.766 0.662-0.662zM14.786 15.448l-1.986-1.876c-0.122-0.138-0.299-0.224-0.497-0.224s-0.375 0.086-0.496 0.223l-0.001 0.001-3.972 3.972c-0.221 0.221-0.221 0.662 0 0.993l2.097 1.766 0.662-0.662-1.766-1.766 3.641-3.531 1.655 1.766 0.662-0.662zM7.393 6.952l3.972 3.972c0.221 0.221 0.662 0.221 0.993 0l3.862-3.972c0.124-0.11 0.206-0.265 0.221-0.439l0-0.002c0-0.221 0-0.331-0.221-0.552l-3.862-3.862c-0.122-0.138-0.299-0.224-0.497-0.224s-0.375 0.086-0.496 0.223l-0.001 0.001-3.862 3.752c-0.221 0.331-0.221 0.772 0 0.993zM1.876 12.469l3.862 3.972c0.331 0.331 0.772 0.331 0.993 0l3.972-3.862c0.081-0.109 0.13-0.245 0.13-0.393 0-0.056-0.007-0.111-0.020-0.163l0.001 0.005-0.11-0.441-3.972-3.972c-0.122-0.138-0.299-0.224-0.497-0.224s-0.375 0.086-0.496 0.223l-0.001 0.001-3.862 3.972c-0.331 0.221-0.331 0.662 0 0.993zM9.6 22.069l2.538 2.648 10.703-14.345-0.772-0.772-12.469 12.469z"></path>
        </symbol>
        <symbol id="icon-chokolate-mobil"
            viewBox="0 0 27 32">
            <path stroke-linejoin="round"
                stroke-linecap="round"
                stroke-miterlimit="4"
                stroke-width="2.7429"
                d="M20.114 23.924l-14.171-8.838M9.905 8.533l14.171 8.99M9.143 25.905l11.733-19.352M25.6 14.781c-3.048-1.829-4.114-3.352-2.286-6.552l-9.6-6.095-11.733 19.352 14.171 8.838 9.448-15.543z"></path>
        </symbol>
        <symbol id="icon-circle"
            viewBox="0 0 32 32">
            <path d="M16 32c8.837 0 16-7.163 16-16s-7.163-16-16-16v0c-8.837 0-16 7.163-16 16s7.163 16 16 16v0z"></path>
        </symbol>
        <symbol id="icon-coin"
            viewBox="0 0 32 32">
            <path d="M16 2.7c-7.3 0-13.3 6-13.3 13.3s6 13.3 13.3 13.3c7.3 0 13.3-6 13.3-13.3s-6-13.3-13.3-13.3zM16 26.7c-5.448-0.544-9.667-5.104-9.667-10.65s4.219-10.106 9.622-10.646l0.045-0.004c5.9 0 10.7 4.7 10.7 10.6s-4.8 10.7-10.7 10.7z"></path>
            <path d="M17.7 14.7h-3.4c-0.7 0-1.2-0.6-1.2-1.2 0-0.7 0.5-1.2 1.2-1.2h4.9c0.8 0 1.3-0.6 1.3-1.4s-0.5-1.3-1.3-1.3h-1.9v-1.2c0-0.8-0.5-1.3-1.3-1.3s-1.3 0.5-1.3 1.3v1.2h-0.4c-1.87 0.311-3.277 1.916-3.277 3.85s1.408 3.539 3.255 3.847l0.023 0.003h3.3c0.7 0 1.2 0.6 1.2 1.2 0 0.7-0.5 1.2-1.2 1.2h-5c-0.7 0-1.3 0.6-1.3 1.4s0.6 1.3 1.4 1.3h2v1.2c0 0.8 0.5 1.3 1.3 1.3s1.3-0.5 1.3-1.3v-1.2h0.4c1.87-0.311 3.277-1.916 3.277-3.85s-1.408-3.539-3.255-3.847l-0.023-0.003z"></path>
        </symbol>
        <symbol id="icon-ellipse"
            viewBox="0 0 69 32">
            <path d="M52.923 0h-36.923c-8.837 0-16 7.163-16 16s7.163 16 16 16v0h36.923c8.837 0 16-7.163 16-16s-7.163-16-16-16v0z"></path>
        </symbol>
        <symbol id="icon-flag"
            viewBox="0 0 41 32">
            <path fill="#ffd700"
                style="fill: var(--color1, #ffd700)"
                d="M40.704 1.28h-40.448v30.208h40.448v-30.208z"></path>
            <path fill="#0057b7"
                style="fill: var(--color2, #0057b7)"
                d="M0.256 1.28h40.448v15.104h-40.448v-14.976z"></path>
        </symbol>
        <symbol id="icon-instagram"
            viewBox="0 0 32 32">
            <path stroke-linejoin="round"
                stroke-linecap="round"
                stroke-miterlimit="4"
                stroke-width="2.6667"
                d="M22.667 2.667h-13.333c-3.682 0-6.667 2.985-6.667 6.667v0 13.333c0 3.682 2.985 6.667 6.667 6.667v0h13.333c3.682 0 6.667-2.985 6.667-6.667v0-13.333c0-3.682-2.985-6.667-6.667-6.667v0z"></path>
            <path stroke-linejoin="round"
                stroke-linecap="round"
                stroke-miterlimit="4"
                stroke-width="2.6667"
                d="M21.333 15.2c0.032 0.22 0.050 0.475 0.050 0.733 0 2.973-2.41 5.383-5.384 5.383-2.715 0-4.96-2.009-5.33-4.622l-0.003-0.029c-0.032-0.22-0.050-0.475-0.050-0.733 0-2.973 2.41-5.383 5.383-5.383 2.715 0 4.96 2.009 5.33 4.622l0.003 0.029z"></path>
            <path stroke-linejoin="round"
                stroke-linecap="round"
                stroke-miterlimit="4"
                stroke-width="2.6667"
                d="M21.333 15.2c0.032 0.22 0.050 0.475 0.050 0.733 0 2.973-2.41 5.383-5.384 5.383-2.715 0-4.96-2.009-5.33-4.622l-0.003-0.029c-0.032-0.22-0.050-0.475-0.050-0.733 0-2.973 2.41-5.383 5.383-5.383 2.715 0 4.96 2.009 5.33 4.622l0.003 0.029zM23.333 8.667v0M23.333 8.667v0"></path>
        </symbol>
        <symbol id="icon-instagram-mobil"
            viewBox="0 0 32 32">
            <path stroke-linejoin="round"
                stroke-linecap="round"
                stroke-miterlimit="4"
                stroke-width="2.1818"
                d="M22.691 2.618h-13.382c-3.636 0-6.691 2.909-6.691 6.691v13.382c0 3.636 2.909 6.691 6.691 6.691h13.382c3.636 0 6.691-2.909 6.691-6.691v-13.382c0-3.636-2.909-6.691-6.691-6.691z"></path>
            <path stroke-linejoin="round"
                stroke-linecap="round"
                stroke-miterlimit="4"
                stroke-width="2.1818"
                d="M21.382 15.127c0.081 0.351 0.128 0.753 0.128 1.167 0 2.972-2.41 5.382-5.382 5.382-2.82 0-5.133-2.169-5.363-4.929l-0.001-0.020c-0.003-0.070-0.005-0.151-0.005-0.233 0-2.972 2.41-5.382 5.382-5.382 2.539 0 4.668 1.758 5.234 4.124l0.007 0.037z"></path>
            <path stroke-linejoin="round"
                stroke-linecap="round"
                stroke-miterlimit="4"
                stroke-width="2.1818"
                d="M21.382 15.127c0.081 0.351 0.128 0.753 0.128 1.167 0 2.972-2.41 5.382-5.382 5.382-2.82 0-5.133-2.169-5.363-4.929l-0.001-0.020c-0.003-0.070-0.005-0.151-0.005-0.233 0-2.972 2.41-5.382 5.382-5.382 2.539 0 4.668 1.758 5.234 4.124l0.007 0.037zM23.273 8.727v0M23.273 8.727v0"></path>
        </symbol>
        <symbol id="icon-logo"
            viewBox="0 0 28 32">
            <path stroke-linejoin="round"
                stroke-linecap="round"
                stroke-miterlimit="4"
                stroke-width="2.6667"
                d="M20.267 24l-14.133-9.067M10.133 8.4l14.133 8.933M9.333 25.867l11.733-19.2M25.867 14.667c-3.067-1.733-4.267-3.2-2.267-6.533l-9.6-6-11.733 19.333 14.133 8.8 9.333-15.467z"></path>
        </symbol>
        <symbol id="icon-Mastercard"
            viewBox="0 0 47 32">
            <path fill="#fafafa"
                style="fill: var(--color3, #fafafa)"
                d="M4.267 0.533h38.4c2.062 0 3.733 1.671 3.733 3.733v23.467c0 2.062-1.671 3.733-3.733 3.733h-38.4c-2.062 0-3.733-1.671-3.733-3.733v-23.467c0-2.062 1.671-3.733 3.733-3.733z"></path>
            <path fill="#ed0006"
                style="fill: var(--color4, #ed0006)"
                d="M23.467 23.253c-1.673 1.368-3.834 2.197-6.188 2.197-5.367 0-9.728-4.309-9.812-9.655l-0-0.008c0.084-5.355 4.445-9.663 9.812-9.663 2.354 0 4.514 0.829 6.205 2.211l-0.018-0.014c1.673-1.368 3.834-2.197 6.188-2.197 5.367 0 9.728 4.309 9.812 9.655l0 0.008c-0.084 5.355-4.445 9.663-9.812 9.663-2.354 0-4.514-0.829-6.205-2.211l0.018 0.014z"></path>
            <path fill="#f9a000"
                style="fill: var(--color5, #f9a000)"
                d="M23.467 23.253c2.114-1.811 3.445-4.483 3.445-7.467s-1.331-5.656-3.432-7.456l-0.013-0.011c1.673-1.368 3.834-2.197 6.188-2.197 5.367 0 9.728 4.309 9.812 9.655l0 0.008c-0.084 5.355-4.445 9.663-9.812 9.663-2.354 0-4.514-0.829-6.205-2.211l0.018 0.014z"></path>
            <path fill="#ff5e00"
                style="fill: var(--color6, #ff5e00)"
                d="M23.467 23.253c2.114-1.811 3.445-4.483 3.445-7.467s-1.331-5.656-3.432-7.456l-0.013-0.011c-2.114 1.811-3.445 4.483-3.445 7.467s1.331 5.656 3.432 7.456l0.013 0.011z"></path>
            <path fill="none"
                stroke="#fafafa"
                style="stroke: var(--color3, #fafafa)"
                stroke-linejoin="miter"
                stroke-linecap="butt"
                stroke-miterlimit="4"
                stroke-width="1.0667"
                d="M4.267 0.533h38.4c2.062 0 3.733 1.671 3.733 3.733v23.467c0 2.062-1.671 3.733-3.733 3.733h-38.4c-2.062 0-3.733-1.671-3.733-3.733v-23.467c0-2.062 1.671-3.733 3.733-3.733z"></path>
        </symbol>
        <symbol id="icon-menu"
            viewBox="0 0 45 32">
            <path stroke-linejoin="round"
                stroke-linecap="round"
                stroke-miterlimit="4"
                stroke-width="4"
                d="M3.2 16h38.4M3.2 3.2h38.4M3.2 28.8h38.4"></path>
        </symbol>
        <symbol id="icon-menu-mobil"
            viewBox="0 0 48 32">
            <path stroke-linejoin="round"
                stroke-linecap="round"
                stroke-miterlimit="4"
                stroke-width="4"
                d="M3 16h42M3 2h42M3 30h42"></path>
        </symbol>
        <symbol id="icon-scroll"
            viewBox="0 0 56 32">
            <path d="M30.8 21.2c-0.721 0.707-1.709 1.143-2.8 1.143s-2.079-0.436-2.801-1.144l0.001 0.001-16.4-17.2c-0.738-0.976-1.896-1.6-3.2-1.6-2.209 0-4 1.791-4 4 0 1.304 0.624 2.463 1.59 3.193l0.010 0.007 17.2 16.8c1.951 1.933 4.636 3.127 7.6 3.127s5.649-1.194 7.601-3.128l-0.001 0.001 17.2-16.8c0.499-0.66 0.8-1.495 0.8-2.4 0-2.209-1.791-4-4-4-0.905 0-1.74 0.301-2.41 0.807l0.010-0.007-16.4 17.2z"></path>
        </symbol>
        <symbol id="icon-spoon"
            viewBox="0 0 32 32">
            <path d="M15.429 13.829c-0.914-1.143-1.371-2.4-1.371-3.771 0-4.914 5.943-9.829 11.771-9.829 3.314 0 5.943 2.629 5.943 5.943 0 5.829-4.914 11.771-9.829 11.771-1.371 0-2.743-0.457-3.771-1.257l-14.743 14.514c-0.265 0.144-0.58 0.229-0.914 0.229-1.073 0-1.943-0.87-1.943-1.943 0-0.335 0.085-0.65 0.234-0.925l-0.005 0.010 14.629-14.857z"></path>
        </symbol>
        <symbol id="icon-tick-mobil"
            viewBox="0 0 53 32">
            <path d="M29.333 21.333c-0.678 0.692-1.622 1.121-2.667 1.121s-1.988-0.429-2.666-1.12l-0.001-0.001-16-17.067c-0.682-0.682-1.625-1.105-2.667-1.105-2.083 0-3.771 1.688-3.771 3.771 0 1.041 0.422 1.984 1.105 2.667l16 16c1.964 2.219 4.819 3.611 8 3.611s6.036-1.392 7.99-3.6l0.010-0.011 16-16c0.682-0.682 1.105-1.625 1.105-2.667 0-2.083-1.688-3.771-3.771-3.771-1.041 0-1.984 0.422-2.667 1.105l-16 16z"></path>
        </symbol>
        <symbol id="icon-twitter"
            viewBox="0 0 37 32">
            <path stroke-linejoin="round"
                stroke-linecap="round"
                stroke-miterlimit="4"
                stroke-width="3.0476"
                d="M35.048 3.048c-1.459 1.029-3.075 1.817-4.785 2.331-0.918-1.055-2.137-1.803-3.494-2.143s-2.785-0.254-4.091 0.245c-1.306 0.499-2.428 1.387-3.214 2.544s-1.197 2.527-1.178 3.926v1.524c-2.678 0.069-5.331-0.524-7.724-1.729s-5.212-4.072-6.752-6.264c0 0-5.333 14.805 8.381 20.9-3.138 2.13-6.877 3.198-10.667 3.048 13.714 7.619 30.476 0 30.476-17.524-0.001-0.424-0.042-0.848-0.122-1.265 1.555-1.534 2.653-3.47 3.17-5.592z"></path>
        </symbol>
        <symbol id="icon-twitter-mobil"
            viewBox="0 0 36 32">
            <path stroke-linejoin="round"
                stroke-linecap="round"
                stroke-miterlimit="4"
                stroke-width="2.6667"
                d="M34.133 2.667c-1.324 0.967-2.858 1.754-4.509 2.28l-0.113 0.031c-1.215-1.532-3.077-2.506-5.166-2.506-3.633 0-6.578 2.945-6.578 6.578 0 0.131 0.004 0.261 0.011 0.391l-0.001-0.018v1.244c-2.667 0-5.333-0.533-7.467-1.778-2.311-0.711-4.444-3.022-5.867-5.333 0 0-5.867 13.867 7.467 19.911-2.68 1.799-5.979 2.871-9.528 2.871-0.338 0-0.674-0.010-1.007-0.029l0.046 0.002c13.333 7.467 29.689 0 29.689-16.889v-1.244c1.422-1.6 2.489-3.556 3.022-5.511z"></path>
        </symbol>
        <symbol id="icon-x-close"
            viewBox="0 0 32 32">
            <path stroke-linejoin="round"
                stroke-linecap="round"
                stroke-miterlimit="4"
                stroke-width="2.2857"
                d="M24 8l-16 16M8 8l16 16"></path>
        </symbol>
        <symbol id="icon-x-mobil"
            viewBox="0 0 32 32">
            <path stroke-linejoin="round"
                stroke-linecap="round"
                stroke-miterlimit="4"
                stroke-width="3"
                d="M24 8l-16 16"></path>
            <path stroke-linejoin="round"
                stroke-linecap="round"
                stroke-miterlimit="4"
                stroke-width="3"
                d="M8 8l16 16"></path>
        </symbol>
        <symbol id="icon-triangle"
            viewBox="0 0 30 32">
            <path d="M0 32v-32l30.476 16-30.476 16z"></path>
        </symbol>
    </defs>
</svg>
